<svg xmlns="http://www.w3.org/2000/svg" width="1em" height="1em" viewBox="0 0 24 24">
	<path fill="currentColor" d="M4.615 19q-.69 0-1.152-.462Q3 18.075 3 17.385v-4.077q0-.348.23-.578q.23-.23.578-.23h3.875l1.86 3.72q.067.14.192.21q.125.07.265.07t.265-.07q.125-.07.193-.21L14 9.134l1.542 3.084q.068.14.193.21q.125.071.265.071h4.192q.348 0 .578.23q.23.23.23.578v4.077q0 .69-.462 1.152q-.463.463-1.153.463zM3 6.615q0-.69.463-1.152Q3.925 5 4.615 5h14.77q.69 0 1.152.463q.463.462.463 1.152v4.077q0 .348-.23.578q-.23.23-.578.23h-3.875l-1.86-3.72q-.067-.12-.182-.175Q14.16 7.55 14 7.55q-.14 0-.265.055t-.193.176L10 14.865l-1.542-3.084q-.068-.14-.193-.21Q8.14 11.5 8 11.5H3.808q-.348 0-.578-.23q-.23-.23-.23-.578z" />
</svg>
